<svg width="32" height="32" viewBox="0 0 32 32" fill="none" xmlns="http://www.w3.org/2000/svg">
<path d="M18.2694 15.7648L15.0875 14.2801C14.8099 14.1512 14.5818 14.2957 14.5818 14.6031V17.3996C14.5818 17.707 14.8099 17.8515 15.0875 17.7226L18.2679 16.238C18.547 16.1076 18.547 15.8951 18.2694 15.7648ZM15.9984 2.40137C8.48727 2.40137 2.39844 8.4902 2.39844 16.0014C2.39844 23.5125 8.48727 29.6014 15.9984 29.6014C23.5096 29.6014 29.5984 23.5125 29.5984 16.0014C29.5984 8.4902 23.5096 2.40137 15.9984 2.40137ZM15.9984 21.5264C9.03694 21.5264 8.9151 20.8988 8.9151 16.0014C8.9151 11.104 9.03694 10.4764 15.9984 10.4764C22.9599 10.4764 23.0818 11.104 23.0818 16.0014C23.0818 20.8988 22.9599 21.5264 15.9984 21.5264Z" fill="white"/>
</svg>
