<svg width="36" height="48" viewBox="0 0 36 48" fill="none" xmlns="http://www.w3.org/2000/svg">
<g clip-path="url(#clip0_702_2)">
<rect width="36" height="48" rx="5" fill="#FF7050"/>
<path d="M8.91797 29H10.3291V26.4463H11.623C12.4987 26.4463 13.1709 26.2412 13.6396 25.8311C14.1117 25.4176 14.3477 24.8594 14.3477 24.1562C14.3477 23.4564 14.1117 22.9046 13.6396 22.501C13.1709 22.0941 12.4987 21.8906 11.623 21.8906H8.91797V29ZM10.3291 25.4111V22.9307H11.5791C12.0837 22.9307 12.4352 23.0462 12.6338 23.2773C12.8356 23.5052 12.9365 23.7998 12.9365 24.1611C12.9365 24.5225 12.8356 24.8219 12.6338 25.0596C12.4352 25.2939 12.0837 25.4111 11.5791 25.4111H10.3291ZM15.4316 29H17.8682C18.8675 29 19.7025 28.7005 20.373 28.1016C21.0436 27.5026 21.3789 26.6855 21.3789 25.6504V25.2354C21.3789 24.2035 21.0436 23.388 20.373 22.7891C19.7025 22.1901 18.8675 21.8906 17.8682 21.8906H15.4316V29ZM16.8428 27.9648V22.9258H17.8633C18.4883 22.9258 18.9896 23.1276 19.3672 23.5312C19.748 23.9316 19.9385 24.498 19.9385 25.2305V25.6602C19.9385 26.3926 19.748 26.9606 19.3672 27.3643C18.9896 27.7646 18.4883 27.9648 17.8633 27.9648H16.8428ZM22.7168 29H24.1279V26.0947H27.1602V25.0596H24.1279V22.9307H27.6045V21.8906H22.7168V29Z" fill="white"/>
<path d="M26 0L31 5L36 10H26V0Z" fill="#F7B2A8"/>
<path d="M37 11L31 5L25 -1L37 -0.999999L37 11Z" fill="#464A59"/>
</g>
<defs>
<clipPath id="clip0_702_2">
<rect width="36" height="48" fill="white"/>
</clipPath>
</defs>
</svg>
