<svg width="88" height="88" viewBox="0 0 88 88" fill="none" xmlns="http://www.w3.org/2000/svg">
<rect width="88" height="88" rx="44" fill="white"/>
<g clip-path="url(#clip0_450_3231)">
<path d="M51.376 44.4163L40.777 51.4823C40.7017 51.5324 40.6142 51.5612 40.5239 51.5655C40.4336 51.5698 40.3437 51.5495 40.264 51.5069C40.1843 51.4642 40.1176 51.4006 40.0711 51.3231C40.0246 51.2455 40 51.1568 40 51.0663V36.9343C40 36.8439 40.0246 36.7551 40.0711 36.6776C40.1176 36.6 40.1843 36.5365 40.264 36.4938C40.3437 36.4511 40.4336 36.4308 40.5239 36.4351C40.6142 36.4395 40.7017 36.4682 40.777 36.5183L51.376 43.5843C51.4445 43.63 51.5006 43.6918 51.5395 43.7644C51.5783 43.837 51.5986 43.918 51.5986 44.0003C51.5986 44.0826 51.5783 44.1637 51.5395 44.2362C51.5006 44.3088 51.4445 44.3707 51.376 44.4163Z" fill="black"/>
</g>
<defs>
<clipPath id="clip0_450_3231">
<rect width="24" height="24" fill="white" transform="translate(32 32)"/>
</clipPath>
</defs>
</svg>
