<svg width="28" height="32" viewBox="0 0 28 32" fill="none" xmlns="http://www.w3.org/2000/svg">
<path d="M13.8666 7.99999L20.8 3.99999L13.8666 0C7.70369 3.55555 6.16295 4.44444 0 7.99999V16L6.93332 12L13.8666 7.99999Z" fill="#2A375A"/>
<path opacity="0.1" d="M16.4609 17.4932C16.615 17.5821 16.7691 17.6709 16.9172 17.7539L16.4609 17.4932Z" fill="#2A375A"/>
<path opacity="0.1" d="M10.4062 18.0087L10.8448 17.7539C10.6966 17.8369 10.5485 17.9258 10.4062 18.0087Z" fill="#2A375A"/>
<path opacity="0.1" d="M17.7734 18.251C17.9097 18.328 18.046 18.411 18.1823 18.488L17.7734 18.251Z" fill="#2A375A"/>
<path opacity="0.1" d="M12.25 16.9359L12.7656 16.6396C12.5878 16.7404 12.4159 16.8352 12.25 16.9359Z" fill="#2A375A"/>
<path opacity="0.1" d="M8.78125 18.9391L9.16643 18.7139C9.03606 18.7909 8.90569 18.862 8.78125 18.9391Z" fill="#2A375A"/>
<path opacity="0.1" d="M13.875 16C14.0706 16.1126 14.2543 16.2193 14.438 16.3259L13.875 16Z" fill="#2A375A"/>
<path opacity="0.1" d="M9.96875 18.2518L10.3895 18.0088C10.2473 18.0918 10.105 18.1688 9.96875 18.2518Z" fill="#2A375A"/>
<path opacity="0.1" d="M14.4375 16.3252C14.6212 16.4319 14.799 16.5326 14.9768 16.6333L14.4375 16.3252Z" fill="#2A375A"/>
<path opacity="0.1" d="M15.9922 17.2217C16.1522 17.3165 16.3122 17.4054 16.4663 17.4943L15.9922 17.2217Z" fill="#2A375A"/>
<path opacity="0.1" d="M7.30469 19.7924L7.66617 19.585C7.54765 19.6501 7.42321 19.7213 7.30469 19.7924Z" fill="#2A375A"/>
<path opacity="0.1" d="M6.9375 19.9994L7.29898 19.792C7.18046 19.8631 7.05602 19.9283 6.9375 19.9994Z" fill="#2A375A"/>
<path opacity="0.1" d="M19.7188 19.3721C19.8432 19.4432 19.9617 19.5143 20.0862 19.5854L19.7188 19.3721Z" fill="#2A375A"/>
<path opacity="0.1" d="M19.3438 19.1592C19.4682 19.2303 19.5926 19.3014 19.7171 19.3725L19.3438 19.1592Z" fill="#2A375A"/>
<path opacity="0.1" d="M11.7734 17.221L12.2653 16.9365C12.0934 17.0313 11.9334 17.1262 11.7734 17.221Z" fill="#2A375A"/>
<path opacity="0.1" d="M8.40625 19.1577L8.78551 18.9385C8.65514 19.0096 8.53069 19.0807 8.40625 19.1577Z" fill="#2A375A"/>
<path opacity="0.1" d="M18.1875 18.4834C18.3238 18.5604 18.4542 18.6375 18.5845 18.7145L18.1875 18.4834Z" fill="#2A375A"/>
<path opacity="0.1" d="M10.8359 17.7539C10.9841 17.6709 11.1382 17.5821 11.2922 17.4932L10.8359 17.7539Z" fill="#2A375A"/>
<path opacity="0.1" d="M8.03125 19.3725C8.15569 19.3014 8.28014 19.2303 8.40458 19.1592L8.03125 19.3725Z" fill="#2A375A"/>
<path opacity="0.1" d="M11.2891 17.4943C11.4431 17.4054 11.6031 17.3165 11.7631 17.2217L11.2891 17.4943Z" fill="#2A375A"/>
<path opacity="0.1" d="M9.16406 18.7145C9.29443 18.6375 9.4248 18.5604 9.5611 18.4834L9.16406 18.7145Z" fill="#2A375A"/>
<path opacity="0.1" d="M9.55469 18.4822C9.69098 18.4051 9.82728 18.3281 9.96358 18.2451L9.55469 18.4822Z" fill="#2A375A"/>
<path opacity="0.1" d="M7.65625 19.5795C7.78069 19.5084 7.89921 19.4373 8.02366 19.3662L7.65625 19.5795Z" fill="#2A375A"/>
<path opacity="0.1" d="M20.0859 19.5791L20.4474 19.7865C20.3289 19.7213 20.2045 19.6502 20.0859 19.5791Z" fill="#2A375A"/>
<path opacity="0.1" d="M18.5859 18.7139L18.9711 18.9391C18.8467 18.862 18.7163 18.7909 18.5859 18.7139Z" fill="#2A375A"/>
<path opacity="0.1" d="M18.9688 18.9385L19.348 19.1577C19.2236 19.0807 19.0991 19.0096 18.9688 18.9385Z" fill="#2A375A"/>
<path opacity="0.1" d="M20.4453 19.792L20.8068 19.9994C20.6883 19.9283 20.5638 19.8631 20.4453 19.792Z" fill="#2A375A"/>
<path opacity="0.1" d="M14.9766 16.6338L15.4921 16.9301C15.3262 16.8353 15.1543 16.7405 14.9766 16.6338Z" fill="#2A375A"/>
<path opacity="0.1" d="M12.7734 16.6333C12.9512 16.5326 13.129 16.4259 13.3127 16.3252L12.7734 16.6333Z" fill="#2A375A"/>
<path opacity="0.1" d="M13.3047 16.3259C13.4884 16.2193 13.678 16.1126 13.8676 16L13.3047 16.3259Z" fill="#2A375A"/>
<path opacity="0.1" d="M16.9141 17.7539L17.3526 18.0087C17.2104 17.9258 17.0622 17.8369 16.9141 17.7539Z" fill="#2A375A"/>
<path opacity="0.1" d="M17.3438 18.0088L17.7645 18.2518C17.6282 18.1688 17.486 18.0918 17.3438 18.0088Z" fill="#2A375A"/>
<path opacity="0.1" d="M15.4766 16.9365L15.9684 17.221C15.8084 17.1262 15.6484 17.0313 15.4766 16.9365Z" fill="#2A375A"/>
<path d="M6.9375 12L0.00418018 8.00001L0.00417948 16L6.9375 12Z" fill="#2A375A"/>
<path opacity="0.2" d="M13.875 8.00098V16.001L20.8083 20.001L27.7416 16.001L13.875 8.00098Z" fill="#2A375A"/>
<path opacity="0.2" d="M13.875 24L13.875 16L6.94168 12L0.0083573 16L13.875 24Z" fill="#2A375A"/>
<path d="M13.8708 24L6.9375 28L13.8708 32C20.0338 28.4444 21.5745 27.5555 27.7375 24V16L20.8041 20L13.8708 24Z" fill="#2A375A"/>
</svg>
