<svg width="178" height="40" viewBox="0 0 178 40" fill="none" xmlns="http://www.w3.org/2000/svg">
<path d="M17.3333 9.99998L26 4.99999L17.3333 0C9.62961 4.44444 7.70369 5.55555 0 9.99998V20L8.66665 15L17.3333 9.99998Z" fill="white"/>
<path opacity="0.1" d="M20.5703 21.8662C20.7629 21.9773 20.9555 22.0884 21.1407 22.1921L20.5703 21.8662Z" fill="white"/>
<path opacity="0.1" d="M13 22.5109L13.5481 22.1924C13.363 22.2961 13.1778 22.4072 13 22.5109Z" fill="white"/>
<path opacity="0.1" d="M22.2109 22.8145C22.3813 22.9107 22.5517 23.0145 22.722 23.1107L22.2109 22.8145Z" fill="white"/>
<path opacity="0.1" d="M15.3125 21.1702L15.9569 20.7998C15.7347 20.9257 15.5199 21.0442 15.3125 21.1702Z" fill="white"/>
<path opacity="0.1" d="M10.9688 23.6741L11.4502 23.3926C11.2873 23.4889 11.1243 23.5778 10.9688 23.6741Z" fill="white"/>
<path opacity="0.1" d="M17.3359 20C17.5804 20.1407 17.81 20.2741 18.0396 20.4074L17.3359 20Z" fill="white"/>
<path opacity="0.1" d="M12.4531 22.8154L12.9791 22.5117C12.8013 22.6154 12.6235 22.7117 12.4531 22.8154Z" fill="white"/>
<path opacity="0.1" d="M18.0391 20.4072C18.2687 20.5406 18.4909 20.6665 18.7131 20.7924L18.0391 20.4072Z" fill="white"/>
<path opacity="0.1" d="M19.9844 21.5264C20.1844 21.6449 20.3844 21.756 20.577 21.8671L19.9844 21.5264Z" fill="white"/>
<path opacity="0.1" d="M9.125 24.7407L9.57685 24.4814C9.4287 24.5629 9.27315 24.6518 9.125 24.7407Z" fill="white"/>
<path opacity="0.1" d="M8.66406 24.9995L9.11591 24.7402C8.96777 24.8291 8.81221 24.9106 8.66406 24.9995Z" fill="white"/>
<path opacity="0.1" d="M24.6406 24.2148C24.7962 24.3037 24.9443 24.3926 25.0999 24.4815L24.6406 24.2148Z" fill="white"/>
<path opacity="0.1" d="M24.1797 23.9482C24.3352 24.0371 24.4908 24.126 24.6464 24.2149L24.1797 23.9482Z" fill="white"/>
<path opacity="0.1" d="M14.7109 21.5255L15.3258 21.1699C15.1109 21.2884 14.9109 21.407 14.7109 21.5255Z" fill="white"/>
<path opacity="0.1" d="M10.5 23.9479L10.9741 23.6738C10.8111 23.7627 10.6556 23.8516 10.5 23.9479Z" fill="white"/>
<path opacity="0.1" d="M22.7266 23.1035C22.8969 23.1998 23.0599 23.2961 23.2229 23.3924L22.7266 23.1035Z" fill="white"/>
<path opacity="0.1" d="M13.5391 22.1921C13.7242 22.0884 13.9168 21.9773 14.1094 21.8662L13.5391 22.1921Z" fill="white"/>
<path opacity="0.1" d="M10.0312 24.2149C10.1868 24.126 10.3424 24.0371 10.4979 23.9482L10.0312 24.2149Z" fill="white"/>
<path opacity="0.1" d="M14.1172 21.8671C14.3098 21.756 14.5098 21.6449 14.7098 21.5264L14.1172 21.8671Z" fill="white"/>
<path opacity="0.1" d="M11.4609 23.3924C11.6239 23.2961 11.7869 23.1998 11.9572 23.1035L11.4609 23.3924Z" fill="white"/>
<path opacity="0.1" d="M11.9375 23.1029C12.1079 23.0066 12.2782 22.9103 12.4486 22.8066L11.9375 23.1029Z" fill="white"/>
<path opacity="0.1" d="M9.57031 24.4737C9.72587 24.3848 9.87402 24.2959 10.0296 24.207L9.57031 24.4737Z" fill="white"/>
<path opacity="0.1" d="M25.1016 24.4736L25.5534 24.7329C25.4053 24.6514 25.2497 24.5625 25.1016 24.4736Z" fill="white"/>
<path opacity="0.1" d="M23.2266 23.3926L23.708 23.6741C23.5525 23.5778 23.3895 23.4889 23.2266 23.3926Z" fill="white"/>
<path opacity="0.1" d="M23.7031 23.6738L24.1772 23.9479C24.0216 23.8516 23.8661 23.7627 23.7031 23.6738Z" fill="white"/>
<path opacity="0.1" d="M25.5625 24.7402L26.0144 24.9995C25.8662 24.9106 25.7106 24.8291 25.5625 24.7402Z" fill="white"/>
<path opacity="0.1" d="M18.7266 20.793L19.371 21.1633C19.1636 21.0448 18.9488 20.9263 18.7266 20.793Z" fill="white"/>
<path opacity="0.1" d="M15.9609 20.7924C16.1832 20.6665 16.4054 20.5332 16.635 20.4072L15.9609 20.7924Z" fill="white"/>
<path opacity="0.1" d="M16.625 20.4074C16.8546 20.2741 17.0917 20.1407 17.3287 20L16.625 20.4074Z" fill="white"/>
<path opacity="0.1" d="M21.1484 22.1924L21.6966 22.5109C21.5188 22.4072 21.3336 22.2961 21.1484 22.1924Z" fill="white"/>
<path opacity="0.1" d="M21.6797 22.5107L22.2056 22.8144C22.0352 22.7107 21.8575 22.6144 21.6797 22.5107Z" fill="white"/>
<path opacity="0.1" d="M19.3516 21.1699L19.9664 21.5255C19.7664 21.407 19.5664 21.2884 19.3516 21.1699Z" fill="white"/>
<path d="M8.66406 15L-0.0025874 10L-0.00258827 20L8.66406 15Z" fill="white"/>
<path opacity="0.2" d="M17.3359 10.001V20.001L26.0026 25.001L34.6692 20.001L17.3359 10.001Z" fill="white"/>
<path opacity="0.2" d="M17.3359 30L17.3359 20L8.66929 15L0.00263508 20L17.3359 30Z" fill="white"/>
<path d="M17.3307 30L8.66406 35L17.3307 40C25.0344 35.5555 26.9603 34.4444 34.664 30V20L25.9974 25L17.3307 30Z" fill="white"/>
<path d="M52.1719 22.7135H55.2641C55.5867 23.5457 56.0438 24.2694 56.6354 24.8845C57.9619 26.3318 59.6558 27.0554 61.7173 27.0554C63.5099 27.0554 65.0246 26.5217 66.2615 25.4543C67.4983 24.3869 68.2243 23.021 68.4394 21.3566H60.7762V18.5072H68.4394C68.1526 16.8066 67.3997 15.4588 66.1808 14.4638C64.9618 13.4506 63.474 12.9441 61.7173 12.9441C59.7096 12.9441 58.0515 13.6044 56.7429 14.9251C56.1693 15.504 55.7212 16.1553 55.3985 16.879H52.3063C52.6828 15.5764 53.2743 14.4276 54.081 13.4326C55.9094 11.1168 58.4548 9.95898 61.7173 9.95898C64.5675 9.95898 66.9606 10.9088 68.8965 12.8084C70.8325 14.708 71.8005 17.1051 71.8005 19.9998C71.8005 22.8944 70.8325 25.2915 68.8965 27.1911C66.9606 29.0907 64.5675 30.0405 61.7173 30.0405C58.5086 30.0405 55.9721 28.8194 54.1078 26.377C53.2474 25.3096 52.6021 24.0884 52.1719 22.7135Z" fill="white"/>
<path d="M73.9463 29.4978V15.6578H76.7696V21.0852H78.7863L82.954 15.6578H86.1806L81.2062 22.0351L86.5839 29.4978H83.0884L78.9207 23.6633H76.7696V29.4978H73.9463Z" fill="white"/>
<path d="M88.3785 27.7067C87.0162 26.3137 86.335 24.604 86.335 22.5778C86.335 20.5515 87.0162 18.8509 88.3785 17.476C89.7588 16.083 91.4528 15.3864 93.4605 15.3864C95.4681 15.3864 97.1531 16.083 98.5155 17.476C99.8958 18.8509 100.586 20.5515 100.586 22.5778C100.586 24.604 99.8958 26.3137 98.5155 27.7067C97.1531 29.0817 95.4681 29.7692 93.4605 29.7692C91.4528 29.7692 89.7588 29.0817 88.3785 27.7067ZM90.4489 19.2399C89.6781 20.0721 89.2927 21.1848 89.2927 22.5778C89.2927 23.9708 89.6781 25.0925 90.4489 25.9428C91.2197 26.775 92.2236 27.1911 93.4605 27.1911C94.6973 27.1911 95.7012 26.775 96.472 25.9428C97.2428 25.0925 97.6282 23.9708 97.6282 22.5778C97.6282 21.1848 97.2428 20.0721 96.472 19.2399C95.7012 18.3896 94.6973 17.9645 93.4605 17.9645C92.2236 17.9645 91.2197 18.3896 90.4489 19.2399Z" fill="white"/>
<path d="M103.62 27.7339C102.312 26.377 101.657 24.6583 101.657 22.5778C101.657 20.4973 102.312 18.7786 103.62 17.4217C104.929 16.0649 106.56 15.3864 108.514 15.3864C110.701 15.3864 112.484 16.2277 113.865 17.9102C114.456 18.6881 114.868 19.5203 115.102 20.4068H112.144C112.018 19.9545 111.785 19.5475 111.445 19.1856C110.746 18.3715 109.769 17.9645 108.514 17.9645C107.402 17.9645 106.47 18.3896 105.717 19.2399C104.982 20.0902 104.615 21.2028 104.615 22.5778C104.615 23.9527 104.982 25.0654 105.717 25.9157C106.47 26.766 107.402 27.1911 108.514 27.1911C109.804 27.1911 110.817 26.7841 111.552 25.9699C111.875 25.6081 112.117 25.2011 112.278 24.7488H115.102C114.868 25.6714 114.456 26.5127 113.865 27.2725C112.502 28.937 110.719 29.7692 108.514 29.7692C106.56 29.7692 104.929 29.0907 103.62 27.7339Z" fill="white"/>
<path d="M116.841 29.4978V15.6578H119.664V24.8845L119.637 25.1558H119.906L126.117 15.6578H129.21V29.4978H126.386V20.2711L126.413 19.9998H126.144L119.933 29.4978H116.841Z" fill="white"/>
<path d="M131.901 29.4978V15.6578H135.934L139.564 23.9347H140.102L143.731 15.6578H147.765V29.4978H144.941V19.7284L144.968 19.457H144.834L141.446 27.0554H138.219L134.831 19.457H134.697L134.724 19.7284V29.4978H131.901Z" fill="white"/>
<path d="M150.453 29.4978V15.6578H162.687V29.4978H159.864V18.2358H153.276V29.4978H150.453Z" fill="white"/>
<path d="M163.902 29.4978L167.666 15.6578H173.716L177.481 29.4978H174.523L171.565 18.2358H169.818L166.86 29.4978H163.902Z" fill="white"/>
</svg>
