<svg width="32" height="32" viewBox="0 0 32 32" fill="none" xmlns="http://www.w3.org/2000/svg">
<path d="M2.66941 29.3337L4.47208 22.7097C3.28426 20.6735 2.66021 18.3576 2.66408 16.0003C2.66408 8.63632 8.63341 2.66699 15.9974 2.66699C23.3614 2.66699 29.3307 8.63632 29.3307 16.0003C29.3307 23.3643 23.3614 29.3337 15.9974 29.3337C13.6411 29.3375 11.3263 28.7139 9.29075 27.527L2.66941 29.3337ZM11.1854 9.74432C11.0132 9.75502 10.845 9.80037 10.6907 9.87766C10.5461 9.95956 10.4141 10.062 10.2987 10.1817C10.1387 10.3323 10.0481 10.463 9.95075 10.5897C9.45796 11.231 9.19289 12.0182 9.19741 12.827C9.20008 13.4803 9.37075 14.1163 9.63741 14.711C10.1827 15.9137 11.0801 17.187 12.2654 18.367C12.5507 18.651 12.8294 18.9363 13.1294 19.2017C14.6006 20.4969 16.3538 21.431 18.2494 21.9297L19.0081 22.0457C19.2547 22.059 19.5014 22.0403 19.7494 22.0283C20.1377 22.0083 20.5169 21.9031 20.8601 21.7203C21.0347 21.6304 21.2051 21.5325 21.3707 21.427C21.3707 21.427 21.4281 21.3897 21.5374 21.307C21.7174 21.1737 21.8281 21.079 21.9774 20.923C22.0881 20.8083 22.1841 20.6737 22.2574 20.5203C22.3614 20.303 22.4654 19.8883 22.5081 19.543C22.5401 19.279 22.5307 19.135 22.5267 19.0457C22.5214 18.903 22.4027 18.755 22.2734 18.6923L21.4974 18.3443C21.4974 18.3443 20.3374 17.839 19.6294 17.5163C19.5548 17.4838 19.4748 17.4653 19.3934 17.4617C19.3022 17.4523 19.21 17.4626 19.1231 17.4918C19.0361 17.521 18.9565 17.5684 18.8894 17.631V17.6283C18.8827 17.6283 18.7934 17.7043 17.8294 18.8723C17.7741 18.9467 17.6979 19.0029 17.6105 19.0337C17.5231 19.0646 17.4285 19.0688 17.3387 19.0457C17.2519 19.0224 17.1668 18.993 17.0841 18.9577C16.9187 18.8883 16.8614 18.8617 16.7481 18.8123L16.7414 18.8097C15.9786 18.4766 15.2724 18.0268 14.6481 17.4763C14.4801 17.3297 14.3241 17.1697 14.1641 17.015C13.6395 16.5126 13.1824 15.9443 12.8041 15.3243L12.7254 15.1977C12.6689 15.1125 12.6232 15.0207 12.5894 14.9243C12.5387 14.7283 12.6707 14.571 12.6707 14.571C12.6707 14.571 12.9947 14.2163 13.1454 14.0243C13.2709 13.8648 13.3879 13.6988 13.4961 13.527C13.6534 13.2737 13.7027 13.0137 13.6201 12.8123C13.2467 11.9003 12.8601 10.9923 12.4627 10.091C12.3841 9.91232 12.1507 9.78432 11.9387 9.75899C11.8667 9.75099 11.7947 9.74299 11.7227 9.73766C11.5437 9.72876 11.3643 9.73188 11.1854 9.74432Z" fill="white"/>
</svg>
