<svg width="28" height="28" viewBox="0 0 28 28" fill="none" xmlns="http://www.w3.org/2000/svg">
<path d="M13.9974 0.666992C6.6374 0.666992 0.664062 6.64033 0.664062 14.0003C0.664062 21.3603 6.6374 27.3337 13.9974 27.3337C21.3574 27.3337 27.3307 21.3603 27.3307 14.0003C27.3307 6.64033 21.3574 0.666992 13.9974 0.666992ZM20.1841 9.73366C19.9841 11.8403 19.1174 16.9603 18.6774 19.3203C18.4907 20.3203 18.1174 20.6537 17.7707 20.6937C16.9974 20.7603 16.4107 20.187 15.6641 19.6937C14.4907 18.9203 13.8241 18.4403 12.6907 17.6937C11.3707 16.827 12.2241 16.347 12.9841 15.5737C13.1841 15.3737 16.5974 12.267 16.6641 11.987C16.6733 11.9446 16.6721 11.9006 16.6605 11.8587C16.6489 11.8169 16.6272 11.7785 16.5974 11.747C16.5174 11.6803 16.4107 11.707 16.3174 11.7203C16.1974 11.747 14.3307 12.987 10.6907 15.4403C10.1574 15.8003 9.67739 15.987 9.25073 15.9737C8.77073 15.9603 7.86406 15.707 7.18406 15.4803C6.34406 15.2137 5.69073 15.067 5.74406 14.6003C5.77073 14.3603 6.10406 14.1203 6.73073 13.867C10.6241 12.1737 13.2107 11.0537 14.5041 10.5203C18.2107 8.97366 18.9707 8.70699 19.4774 8.70699C19.5841 8.70699 19.8374 8.73366 19.9974 8.86699C20.1307 8.97366 20.1707 9.12033 20.1841 9.22699C20.1707 9.30699 20.1974 9.54699 20.1841 9.73366Z" fill="white"/>
</svg>
