<svg width="21" height="20" viewBox="0 0 21 20" fill="none" xmlns="http://www.w3.org/2000/svg">
<path d="M10.7109 14L14.7109 10L10.7109 6L9.31094 7.4L10.9109 9H6.71094V11H10.9109L9.31094 12.6L10.7109 14ZM10.7109 20C9.3276 20 8.0276 19.7373 6.81094 19.212C5.59427 18.6873 4.53594 17.975 3.63594 17.075C2.73594 16.175 2.0236 15.1167 1.49894 13.9C0.973604 12.6833 0.710938 11.3833 0.710938 10C0.710938 8.61667 0.973604 7.31667 1.49894 6.1C2.0236 4.88333 2.73594 3.825 3.63594 2.925C4.53594 2.025 5.59427 1.31233 6.81094 0.787C8.0276 0.262333 9.3276 0 10.7109 0C12.0943 0 13.3943 0.262333 14.6109 0.787C15.8276 1.31233 16.8859 2.025 17.7859 2.925C18.6859 3.825 19.3983 4.88333 19.9229 6.1C20.4483 7.31667 20.7109 8.61667 20.7109 10C20.7109 11.3833 20.4483 12.6833 19.9229 13.9C19.3983 15.1167 18.6859 16.175 17.7859 17.075C16.8859 17.975 15.8276 18.6873 14.6109 19.212C13.3943 19.7373 12.0943 20 10.7109 20ZM10.7109 18C12.9443 18 14.8359 17.225 16.3859 15.675C17.9359 14.125 18.7109 12.2333 18.7109 10C18.7109 7.76667 17.9359 5.875 16.3859 4.325C14.8359 2.775 12.9443 2 10.7109 2C8.4776 2 6.58594 2.775 5.03594 4.325C3.48594 5.875 2.71094 7.76667 2.71094 10C2.71094 12.2333 3.48594 14.125 5.03594 15.675C6.58594 17.225 8.4776 18 10.7109 18Z" fill="#2A375A"/>
</svg>
