<svg width="18" height="22" viewBox="0 0 18 22" fill="none" xmlns="http://www.w3.org/2000/svg">
<path d="M8.97656 5C8.23488 5 7.50986 5.21993 6.89317 5.63199C6.27649 6.04404 5.79584 6.62971 5.51201 7.31494C5.22819 8.00016 5.15392 8.75416 5.29862 9.48159C5.44331 10.209 5.80047 10.8772 6.32491 11.4016C6.84936 11.9261 7.51755 12.2832 8.24497 12.4279C8.9724 12.5726 9.7264 12.4984 10.4116 12.2145C11.0968 11.9307 11.6825 11.4501 12.0946 10.8334C12.5066 10.2167 12.7266 9.49168 12.7266 8.75C12.7241 7.7562 12.3282 6.80381 11.6255 6.10108C10.9228 5.39836 9.97036 5.00247 8.97656 5ZM8.97656 11C8.53156 11 8.09654 10.868 7.72653 10.6208C7.35652 10.3736 7.06813 10.0222 6.89783 9.61104C6.72754 9.1999 6.68298 8.7475 6.7698 8.31105C6.85661 7.87459 7.0709 7.47368 7.38557 7.15901C7.70024 6.84434 8.10115 6.63005 8.53761 6.54323C8.97407 6.45642 9.42647 6.50097 9.8376 6.67127C10.2487 6.84157 10.6001 7.12996 10.8474 7.49997C11.0946 7.86998 11.2266 8.30499 11.2266 8.75C11.2241 9.34598 10.9862 9.91684 10.5648 10.3383C10.1434 10.7597 9.57254 10.9975 8.97656 11ZM8.97656 0.5C6.78929 0.502481 4.69231 1.37247 3.14567 2.91911C1.59904 4.46575 0.729044 6.56273 0.726562 8.75C0.726562 11.6937 2.08594 14.8156 4.66406 17.7687C5.82296 19.1064 7.12442 20.3136 8.54531 21.3687C8.67305 21.4538 8.8231 21.4992 8.97656 21.4992C9.13003 21.4992 9.28007 21.4538 9.40781 21.3687C10.8329 20.3151 12.1376 19.1079 13.2984 17.7687C15.8672 14.8156 17.2266 11.6937 17.2266 8.75C17.2241 6.56273 16.3541 4.46575 14.8075 2.91911C13.2608 1.37247 11.1638 0.502481 8.97656 0.5ZM8.97656 19.8125C7.42969 18.5937 2.22656 14.1125 2.22656 8.75C2.22656 6.95979 2.93772 5.2429 4.20359 3.97703C5.46946 2.71116 7.18635 2 8.97656 2C10.7668 2 12.4837 2.71116 13.7495 3.97703C15.0154 5.2429 15.7266 6.95979 15.7266 8.75C15.7266 14.1125 10.5234 18.5937 8.97656 19.8125Z" fill="white"/>
</svg>
